# Blender v2.93.1 OBJ File: ''
# www.blender.org
mtllib GazCells.mtl
o Plane.001
v -1.000000 -0.180119 1.000000
v 1.000000 -0.180119 1.000000
v -1.000000 -0.180119 -1.000000
v 1.000000 -0.180119 -1.000000
v -1.000000 -0.180119 -0.750000
v -1.000000 -0.180119 -0.500000
v -1.000000 -0.180119 -0.250000
v -1.000000 -0.180119 0.000000
v -1.000000 -0.180119 0.250000
v -1.000000 -0.180119 0.500000
v -1.000000 -0.180119 0.750000
v -0.750000 -0.180119 1.000000
v -0.500000 -0.180119 1.000000
v -0.250000 -0.180119 1.000000
v 0.000000 -0.180119 1.000000
v 0.250000 -0.180119 1.000000
v 0.500000 -0.180119 1.000000
v 0.750000 -0.180119 1.000000
v 1.000000 -0.180119 0.750000
v 1.000000 -0.180119 0.500000
v 1.000000 -0.180119 0.250000
v 1.000000 -0.180119 0.000000
v 1.000000 -0.180119 -0.250000
v 1.000000 -0.180119 -0.500000
v 1.000000 -0.180119 -0.750000
v 0.750000 -0.180119 -1.000000
v 0.500000 -0.180119 -1.000000
v 0.250000 -0.180119 -1.000000
v 0.000000 -0.180119 -1.000000
v -0.250000 -0.180119 -1.000000
v -0.500000 -0.180119 -1.000000
v -0.750000 -0.180119 -1.000000
v -0.750000 -0.091241 0.750000
v -0.500000 -0.091241 0.750000
v -0.250000 -0.091241 0.750000
v 0.000000 -0.063789 0.750000
v 0.185029 0.000000 0.760735
v 0.500000 -0.063789 0.750000
v 0.750000 -0.063789 0.750000
v -0.750000 -0.091241 0.500000
v -0.500000 -0.091241 0.500000
v -0.250000 -0.091241 0.500000
v -0.069957 0.061576 0.555966
v 0.101640 0.061576 0.708803
v 0.655687 0.061576 0.650192
v 0.775445 0.061576 0.532053
v -0.750000 -0.091241 0.250000
v -0.500000 -0.091241 0.250000
v -0.250000 -0.091241 0.250000
v -0.179345 0.061576 0.263991
v 0.595595 0.186441 0.547297
v 0.158273 0.186441 0.593560
v 0.860920 0.061576 0.254579
v -0.750000 -0.091241 0.000000
v -0.500000 -0.091241 0.000000
v -0.250000 0.000000 0.000000
v -0.067413 0.061576 -0.127195
v 0.047348 0.078241 -0.166655
v 0.022828 0.186441 0.472922
v 0.795790 0.061576 -0.038158
v -0.750000 -0.091241 -0.250000
v -0.414525 -0.091241 -0.332422
v -0.256105 0.000000 -0.265263
v -0.038158 0.000000 -0.315633
v 0.172411 0.061576 -0.261448
v 0.493640 0.061576 -0.285615
v 0.690218 0.061576 -0.178771
v -0.750000 -0.091241 -0.500000
v -0.500000 -0.091241 -0.504579
v -0.356605 0.145151 -0.399117
v 0.074791 0.000000 -0.513737
v 0.250000 -0.091241 -0.500000
v 0.500000 -0.091241 -0.500000
v 0.750000 -0.091241 -0.500000
v -0.750000 -0.091241 -0.750000
v -0.471000 -0.091241 -0.716421
v -0.265263 0.000000 -0.826317
v -0.047317 0.000000 -0.803422
v 0.250000 -0.091241 -0.750000
v 0.500000 -0.091241 -0.750000
v 0.750000 -0.091241 -0.750000
v -0.028371 0.186390 0.518896
v 0.127066 0.186390 0.657340
v 0.628934 0.186390 0.604248
v 0.735786 0.186390 0.497235
v -0.127457 0.141920 0.254418
v 0.597801 0.062899 0.552655
v 0.154025 0.062899 0.599601
v 0.813211 0.186390 0.245893
v -0.026067 0.186390 -0.099927
v 0.077887 0.201485 -0.135672
v 0.016581 0.062899 0.477183
v 0.755844 0.152862 -0.019276
v 0.191172 0.186390 -0.221537
v 0.482149 0.186390 -0.243428
v 0.660214 0.186390 -0.146646
v 0.686479 0.186441 0.454047
v -0.063514 0.141971 0.242460
v 0.553882 0.038563 0.476954
v 0.195891 0.038563 0.514825
v 0.753947 0.186441 0.235031
v 0.024836 0.186441 -0.066312
v 0.115420 0.199595 -0.097459
v 0.085015 0.038563 0.416070
v 0.706181 0.152912 0.003966
v 0.214134 0.186441 -0.172281
v 0.467688 0.186441 -0.191356
v 0.622851 0.186441 -0.107022
v 0.707575 0.062899 0.458030
v -0.071035 0.062899 0.243320
v -0.076901 0.090729 -0.359438
v -0.252042 0.090729 -0.318962
v 0.776038 0.062899 0.235781
v 0.018619 0.062899 -0.070009
v 0.110540 0.076247 -0.101616
v -0.379346 0.090729 -0.372931
v 0.710020 0.062899 0.001307
v 0.210711 0.062899 -0.177541
v 0.468007 0.062899 -0.196899
v 0.625460 0.062899 -0.111320
v 0.642436 0.038563 0.400620
v 0.014335 0.038563 0.227414
v 0.284651 0.038563 0.219557
v 0.446186 0.038563 0.219557
v 0.697665 0.038563 0.221333
v 0.086659 0.038563 -0.025347
v 0.160811 0.049331 -0.050844
v 0.446186 0.038563 0.058023
v 0.644409 0.038563 0.032183
v 0.241619 0.038563 -0.112093
v 0.449178 0.038563 -0.127708
v 0.576195 0.038563 -0.058672
v -0.448033 0.090729 -0.511274
v 0.013864 0.090729 -0.518634
v -0.424729 0.090729 -0.681508
v -0.259401 0.090729 -0.769820
v -0.084261 0.090729 -0.751422
v -0.249415 0.145151 -0.353676
v -0.101947 0.145151 -0.387757
v -0.414439 0.145151 -0.515602
v -0.331963 0.070228 -0.427492
v -0.025523 0.145151 -0.521799
v -0.394817 0.145151 -0.658939
v -0.255611 0.145151 -0.733298
v -0.108143 0.145151 -0.717806
v -0.331963 0.145151 -0.427492
v -0.246568 0.145151 -0.391290
v -0.129085 0.145151 -0.418441
v -0.378038 0.145151 -0.520292
v -0.068200 0.145151 -0.525229
v -0.362406 0.145151 -0.634484
v -0.251505 0.145151 -0.693724
v -0.134021 0.145151 -0.681382
v -0.246568 0.070228 -0.391290
v -0.129085 0.070228 -0.418441
v -0.378038 0.070228 -0.520292
v -0.216948 0.070228 -0.555671
v -0.068200 0.070228 -0.525229
v -0.362406 0.070228 -0.634484
v -0.251505 0.070228 -0.693724
v -0.134021 0.070228 -0.681382
vt 0.737210 0.137127
vt 0.732823 0.236558
vt 0.633228 0.231227
vt 0.638080 0.131330
vt 0.728737 0.338756
vt 0.627445 0.329002
vt 0.729198 0.440513
vt 0.639848 0.418856
vt 0.720257 0.514853
vt 0.690670 0.486321
vt 0.734771 0.628903
vt 0.675797 0.679366
vt 0.730463 0.724761
vt 0.632146 0.725808
vt 0.534715 0.227349
vt 0.537180 0.126600
vt 0.532929 0.321717
vt 0.530902 0.382490
vt 0.425590 0.741168
vt 0.367197 0.706209
vt 0.398291 0.672896
vt 0.439359 0.707095
vt 0.321015 0.633048
vt 0.368507 0.618890
vt 0.649442 0.503326
vt 0.608920 0.456781
vt 0.433639 0.228525
vt 0.434222 0.124061
vt 0.432836 0.340110
vt 0.380686 0.415693
vt 0.525792 0.415869
vt 0.325956 0.510629
vt 0.370797 0.526362
vt 0.361302 0.461451
vt 0.398785 0.488692
vt 0.297247 0.258545
vt 0.330113 0.122214
vt 0.320484 0.336201
vt 0.299096 0.424960
vt 0.410714 0.455523
vt 0.533602 0.761879
vt 0.527490 0.715559
vt 0.601798 0.689992
vt 0.226825 0.225972
vt 0.226376 0.123379
vt 0.221131 0.470375
vt 0.116500 0.419300
vt 0.148677 0.398432
vt 0.218848 0.429750
vt 0.268888 0.400248
vt 0.279105 0.344932
vt 0.218090 0.546664
vt 0.219863 0.642553
vt 0.225499 0.745874
vt 0.139145 0.242383
vt 0.122929 0.127469
vt 0.106608 0.336811
vt 0.143936 0.344757
vt 0.258919 0.308467
vt 0.120634 0.542265
vt 0.120995 0.643920
vt 0.122198 0.744915
vt 0.848549 0.036851
vt 0.843115 0.138063
vt 0.747337 0.031418
vt 0.840499 0.240223
vt 0.836508 0.341860
vt 0.834554 0.440454
vt 0.835720 0.535309
vt 0.838458 0.628672
vt 0.839547 0.727043
vt 0.848549 0.827891
vt 0.747700 0.836893
vt 0.645326 0.854787
vt 0.540280 0.869083
vt 0.434866 0.870938
vt 0.328820 0.863147
vt 0.222489 0.859042
vt 0.116262 0.854342
vt 0.012385 0.852656
vt 0.014072 0.748779
vt 0.012321 0.645159
vt 0.012272 0.542616
vt 0.011731 0.442209
vt 0.007774 0.340434
vt 0.013042 0.234584
vt 0.011621 0.126232
vt 0.116001 0.015885
vt 0.008638 0.018868
vt 0.223488 0.011590
vt 0.330533 0.010869
vt 0.436793 0.013060
vt 0.541710 0.017156
vt 0.644928 0.023168
vt 0.629171 0.512603
vt 0.594107 0.471395
vt 0.521417 0.438662
vt 0.421414 0.471362
vt 0.387634 0.533579
vt 0.384295 0.614029
vt 0.447165 0.689390
vt 0.522867 0.697937
vt 0.587942 0.675215
vt 0.633271 0.656777
vt 0.615418 0.647107
vt 0.410847 0.661083
vt 0.679174 0.966486
vt 0.638518 0.926586
vt 0.665553 0.898659
vt 0.706809 0.939149
vt 0.890746 0.966453
vt 0.790565 0.985631
vt 0.781696 0.962269
vt 0.878810 0.929396
vt 0.773794 0.985912
vt 0.695885 0.976424
vt 0.991982 0.435345
vt 0.915579 0.440527
vt 0.912152 0.403430
vt 0.989682 0.398172
vt 0.852640 0.658236
vt 0.869989 0.587094
vt 0.897608 0.589141
vt 0.890817 0.663679
vt 0.889446 0.745499
vt 0.857341 0.682824
vt 0.923395 0.727278
vt 0.941252 0.782806
vt 0.906895 0.762168
vt 0.961456 0.750543
vt 0.872652 0.576871
vt 0.882188 0.533863
vt 0.916703 0.550109
vt 0.411467 0.500918
vt 0.785218 0.934145
vt 0.862700 0.907903
vt 0.725110 0.915684
vt 0.918792 0.381446
vt 0.980919 0.376938
vt 0.920372 0.595062
vt 0.914828 0.654816
vt 0.940881 0.705821
vt 0.971561 0.724473
vt 0.935707 0.563847
vt 0.858724 0.173254
vt 0.992806 0.166169
vt 0.983402 0.191833
vt 0.875239 0.197548
vt 0.891646 0.434950
vt 0.857844 0.417887
vt 0.877850 0.386115
vt 0.928709 0.906402
vt 0.918332 0.935930
vt 0.889340 0.899433
vt 0.892251 0.520756
vt 0.934108 0.485750
vt 0.959178 0.514587
vt 0.858221 0.136020
vt 0.990352 0.129038
vt 0.691939 0.883039
vt 0.782825 0.849511
vt 0.963602 0.273415
vt 0.915607 0.281072
vt 0.990726 0.640675
vt 0.869954 0.883950
vt 0.971259 0.321411
vt 0.891590 0.367334
vt 0.981688 0.591614
vt 0.969909 0.535423
vt 0.218953 0.292364
vt 0.245919 0.321317
vt 0.217011 0.309545
vt 0.217993 0.408400
vt 0.252875 0.387023
vt 0.172344 0.299279
vt 0.182527 0.314187
vt 0.163293 0.348372
vt 0.259751 0.347610
vt 0.216221 0.318127
vt 0.188600 0.322412
vt 0.165852 0.386641
vt 0.175904 0.379627
vt 0.216923 0.396795
vt 0.249764 0.349038
vt 0.239269 0.327971
vt 0.173209 0.349642
vt 0.431555 0.531010
vt 0.453967 0.507940
vt 0.472603 0.526043
vt 0.450191 0.549114
vt 0.560179 0.626339
vt 0.524300 0.646107
vt 0.511762 0.623351
vt 0.547641 0.603583
vt 0.422035 0.583367
vt 0.424259 0.547506
vt 0.447967 0.584975
vt 0.529602 0.498270
vt 0.563441 0.524193
vt 0.547641 0.544818
vt 0.513802 0.518895
vt 0.244343 0.380006
vt 0.504209 0.574582
vt 0.468344 0.619359
vt 0.573623 0.544818
vt 0.573623 0.603583
vt 0.445992 0.632605
vt 0.425616 0.598220
vt 0.468161 0.500444
vt 0.509360 0.493296
vt 0.509383 0.649224
vt 0.465965 0.645232
vn 0.0000 1.0000 0.0000
vn -0.4016 0.8628 0.3069
vn -0.4240 0.5740 0.7006
vn 0.1073 0.6012 0.7918
vn 0.2166 0.7026 0.6778
vn -0.7809 0.6045 0.1576
vn 0.7641 0.3718 -0.5272
vn 0.4520 0.3227 -0.8316
vn -0.6080 0.4053 0.6827
vn -0.1767 0.9683 0.1767
vn -0.6473 0.7622 -0.0045
vn -0.8474 0.4501 0.2815
vn -0.0712 0.3135 -0.9469
vn -0.5423 0.3288 -0.7732
vn -0.4001 0.9149 -0.0531
vn -0.2116 0.9670 -0.1420
vn -0.2025 0.9100 -0.3617
vn -0.3491 0.3089 -0.8847
vn 0.8916 0.3599 0.2747
vn 0.7909 0.5131 -0.3334
vn 0.1959 0.4930 0.8477
vn 0.1225 0.9522 -0.2798
vn -0.0238 0.8266 -0.5622
vn 0.1152 0.8688 -0.4815
vn 0.0891 0.5223 -0.8481
vn -0.4580 0.3484 0.8178
vn 0.3693 0.9255 -0.0836
vn -0.1724 0.9698 0.1724
vn 0.0000 0.9422 0.3350
vn -0.0507 0.9239 0.3792
vn -0.1360 0.8392 0.5265
vn 0.1063 0.8566 0.5049
vn -0.0000 0.9066 0.4219
vn 0.2210 0.9499 0.2210
vn 0.5952 0.7676 0.2380
vn 0.7971 0.5898 0.1292
vn 0.8146 0.5717 -0.0978
vn 0.6677 0.7223 -0.1804
vn 0.4834 0.8570 -0.1787
vn 0.3350 0.9422 -0.0000
vn 0.1724 0.9698 -0.1724
vn 0.0000 0.9422 -0.3350
vn 0.1897 0.8498 -0.4918
vn 0.0340 0.7192 -0.6940
vn -0.2821 0.8306 -0.4801
vn 0.0201 0.9482 -0.3170
vn -0.1724 0.9698 -0.1724
vn -0.3350 0.9422 0.0000
vn -0.0005 1.0000 0.0006
vn -0.0246 0.9917 0.1260
vn -0.0757 0.9860 -0.1488
vn -0.0001 1.0000 -0.0010
vn -0.0140 0.9913 -0.1310
vn 0.0008 1.0000 0.0002
vn 0.0006 1.0000 0.0006
vn 0.1293 0.9756 0.1774
vn 0.0981 0.3622 0.9269
vn 0.9003 0.3756 -0.2202
vn -0.8792 0.4191 -0.2266
vn 0.6505 0.3849 0.6547
vn 0.6639 -0.0593 -0.7454
vn 0.9604 -0.0689 0.2699
vn 0.9362 -0.0723 -0.3438
vn 0.0749 -0.0445 0.9962
vn -0.9625 -0.1190 0.2438
vn -0.9417 -0.1702 -0.2901
vn -0.6806 -0.0917 -0.7269
vn -0.8021 -0.0436 0.5956
vn 0.0973 0.9942 -0.0464
vn -0.0944 0.9854 0.1415
vn 0.0005 1.0000 -0.0008
vn 0.0001 1.0000 0.0008
vn 0.2873 0.9543 0.0822
vn 0.2563 0.9618 -0.0960
vn 0.0254 0.9409 0.3378
vn -0.3101 0.9467 0.0873
vn -0.2809 0.9558 -0.0865
vn -0.1777 0.9622 -0.2062
vn -0.2593 0.9460 0.1947
vn -0.0307 0.9566 -0.2897
vn 0.5990 -0.0506 0.7992
vn 0.3307 -0.0448 0.9427
vn -0.4771 -0.0406 0.8779
vn -0.1051 -0.0450 -0.9934
vn -0.0290 0.9993 0.0234
vn 0.0194 0.9996 0.0194
vn 0.0282 0.9990 -0.0340
vn 0.1716 0.9662 -0.1926
vn 0.2856 0.9345 0.2126
vn 0.0247 0.8932 0.4490
vn -0.1572 0.9442 0.2893
vn -0.7720 0.5070 0.3833
vn 0.7259 0.5494 0.4139
vn -0.3996 0.5298 -0.7481
vn 0.1922 0.5211 0.8316
vn -0.9546 0.2678 -0.1307
vn 0.7416 0.5208 0.4228
vn -0.8642 0.2626 0.4291
vn -0.5069 0.3595 -0.7835
vn 0.0872 0.5509 -0.8300
vn -0.3338 0.5183 0.7874
vn 0.7746 0.5416 -0.3265
vn -0.8493 0.5150 -0.1163
vn 0.3903 0.0000 -0.9207
vn -0.1045 0.0000 0.9945
vn 0.8957 0.0000 -0.4447
vn -0.8687 0.0000 -0.4953
vn -0.9215 0.0000 0.3884
vn 0.9908 0.0000 0.1356
vn -0.2252 0.0000 -0.9743
vn 0.4712 0.0000 0.8820
usemtl None
s off
f 33/1/1 34/2/1 41/3/1 40/4/1
f 34/2/1 35/5/1 42/6/1 41/3/1
f 35/5/2 36/7/2 43/8/2 42/6/2
f 36/7/3 37/9/3 44/10/3 43/8/3
f 37/9/4 38/11/4 45/12/4 44/10/4
f 38/11/5 39/13/5 46/14/5 45/12/5
f 40/4/1 41/3/1 48/15/1 47/16/1
f 41/3/1 42/6/1 49/17/1 48/15/1
f 42/6/6 43/8/6 50/18/6 49/17/6
f 60/19/7 67/20/7 96/21/7 93/22/7
f 67/20/8 66/23/8 95/24/8 96/21/8
f 43/8/9 44/10/9 83/25/9 82/26/9
f 47/16/1 48/15/1 55/27/1 54/28/1
f 48/15/10 49/17/10 56/29/10 55/27/10
f 49/17/11 50/18/11 57/30/11 56/29/11
f 50/18/12 43/8/12 82/26/12 86/31/12
f 66/23/13 65/32/13 94/33/13 95/24/13
f 65/32/14 58/34/14 91/35/14 94/33/14
f 54/28/1 55/27/1 62/36/1 61/37/1
f 55/27/15 56/29/15 63/38/15 62/36/15
f 56/29/16 57/30/16 64/39/16 63/38/16
f 57/30/17 58/34/17 65/32/17 64/39/17
f 58/34/18 57/30/18 90/40/18 91/35/18
f 46/14/19 53/41/19 89/42/19 85/43/19
f 61/37/1 62/36/1 69/44/1 68/45/1
f 71/46/20 78/47/20 137/48/20 134/49/20
f 63/38/21 64/39/21 111/50/21 112/51/21
f 64/39/22 65/32/22 72/52/22 71/46/22
f 65/32/23 66/23/23 73/53/23 72/52/23
f 66/23/24 67/20/24 74/54/24 73/53/24
f 68/45/1 69/44/1 76/55/1 75/56/1
f 78/47/25 77/57/25 136/58/25 137/48/25
f 62/36/26 63/38/26 112/51/26 116/59/26
f 71/46/27 72/52/27 79/60/27 78/47/27
f 72/52/1 73/53/1 80/61/1 79/60/1
f 73/53/1 74/54/1 81/62/1 80/61/1
f 1/63/28 12/64/28 33/1/28 11/65/28
f 12/64/29 13/66/29 34/2/29 33/1/29
f 13/66/29 14/67/29 35/5/29 34/2/29
f 14/67/30 15/68/30 36/7/30 35/5/30
f 15/68/31 16/69/31 37/9/31 36/7/31
f 16/69/32 17/70/32 38/11/32 37/9/32
f 17/70/33 18/71/33 39/13/33 38/11/33
f 18/71/34 2/72/34 19/73/34 39/13/34
f 39/13/35 19/73/35 20/74/35 46/14/35
f 46/14/36 20/74/36 21/75/36 53/41/36
f 53/41/37 21/75/37 22/76/37 60/19/37
f 60/19/38 22/76/38 23/77/38 67/20/38
f 67/20/39 23/77/39 24/78/39 74/54/39
f 74/54/40 24/78/40 25/79/40 81/62/40
f 81/62/41 25/79/41 4/80/41 26/81/41
f 80/61/42 81/62/42 26/81/42 27/82/42
f 79/60/42 80/61/42 27/82/42 28/83/42
f 78/47/43 79/60/43 28/83/43 29/84/43
f 77/57/44 78/47/44 29/84/44 30/85/44
f 76/55/45 77/57/45 30/85/45 31/86/45
f 75/56/46 76/55/46 31/86/46 32/87/46
f 5/88/47 75/56/47 32/87/47 3/89/47
f 6/90/48 68/45/48 75/56/48 5/88/48
f 7/91/48 61/37/48 68/45/48 6/90/48
f 8/92/48 54/28/48 61/37/48 7/91/48
f 9/93/48 47/16/48 54/28/48 8/92/48
f 10/94/48 40/4/48 47/16/48 9/93/48
f 11/65/48 33/1/48 40/4/48 10/94/48
f 82/26/49 83/25/49 52/95/49 59/96/49
f 90/40/50 86/31/50 98/97/50 102/98/50
f 86/31/51 82/26/51 59/96/51 98/97/51
f 95/24/52 94/33/52 106/99/52 107/100/52
f 89/42/53 93/22/53 105/101/53 101/102/53
f 85/43/54 89/42/54 101/102/54 97/103/54
f 84/104/55 85/43/55 97/103/55 51/105/55
f 93/22/56 96/21/56 108/106/56 105/101/56
f 44/10/57 45/12/57 84/104/57 83/25/57
f 53/41/58 60/19/58 93/22/58 89/42/58
f 57/30/59 50/18/59 86/31/59 90/40/59
f 45/12/60 46/14/60 85/43/60 84/104/60
f 59/107/61 52/108/61 88/109/61 92/110/61
f 102/111/62 98/112/62 110/113/62 114/114/62
f 98/115/63 59/116/63 92/110/63 110/113/63
f 107/117/64 106/118/64 118/119/64 119/120/64
f 101/121/65 105/122/65 117/123/65 113/124/65
f 97/125/66 101/126/66 113/124/66 109/127/66
f 51/128/67 97/129/67 109/127/67 87/130/67
f 105/131/68 108/132/68 120/133/68 117/123/68
f 94/33/69 91/35/69 103/134/69 106/99/69
f 91/35/70 90/40/70 102/98/70 103/134/70
f 96/21/71 95/24/71 107/100/71 108/106/71
f 83/25/72 84/104/72 51/105/72 52/95/72
f 114/114/73 110/113/73 122/135/73 126/136/73
f 110/113/74 92/110/74 104/137/74 122/135/74
f 119/120/75 118/119/75 130/138/75 131/139/75
f 113/124/76 117/123/76 129/140/76 125/141/76
f 109/127/77 113/124/77 125/141/77 121/142/77
f 87/130/78 109/127/78 121/142/78 99/143/78
f 117/123/79 120/133/79 132/144/79 129/140/79
f 88/145/80 87/146/80 99/147/80 100/148/80
f 106/149/81 103/150/81 115/151/81 118/119/81
f 103/152/82 102/153/82 114/114/82 115/154/82
f 108/155/83 107/156/83 119/157/83 120/133/83
f 52/158/84 51/159/84 87/146/84 88/145/84
f 104/137/1 100/160/1 123/161/1 122/135/1
f 100/148/1 99/147/1 124/162/1 123/163/1
f 99/143/1 121/142/1 125/141/1 124/164/1
f 122/135/85 123/161/85 127/165/85 126/136/85
f 123/163/86 124/162/86 128/166/86 127/167/86
f 124/164/1 125/141/1 129/140/1 128/168/1
f 127/167/87 128/166/87 131/139/87 130/138/87
f 128/168/1 129/140/1 132/144/1 131/169/1
f 92/110/88 88/109/88 100/160/88 104/137/88
f 118/119/89 115/151/89 127/167/89 130/138/89
f 115/154/90 114/114/90 126/136/90 127/165/90
f 120/133/91 119/157/91 131/169/91 132/144/91
f 133/170/92 116/59/92 70/171/92 140/172/92
f 111/50/93 134/49/93 142/173/93 139/174/93
f 136/58/94 135/175/94 143/176/94 144/177/94
f 112/51/95 111/50/95 139/174/95 138/178/95
f 76/55/96 69/44/96 133/170/96 135/175/96
f 64/39/97 71/46/97 134/49/97 111/50/97
f 69/44/98 62/36/98 116/59/98 133/170/98
f 77/57/99 76/55/99 135/175/99 136/58/99
f 143/176/1 140/172/1 149/179/1 151/180/1
f 142/173/1 145/181/1 153/182/1 150/183/1
f 70/171/1 138/178/1 147/184/1 146/185/1
f 145/181/1 144/177/1 152/186/1 153/182/1
f 137/48/100 136/58/100 144/177/100 145/181/100
f 116/59/101 112/51/101 138/178/101 70/171/101
f 134/49/102 137/48/102 145/181/102 142/173/102
f 135/175/103 133/170/103 140/172/103 143/176/103
f 146/187/104 147/188/104 154/189/104 141/190/104
f 153/191/105 152/192/105 160/193/105 161/194/105
f 149/195/106 146/196/106 141/190/106 156/197/106
f 148/198/107 150/199/107 158/200/107 155/201/107
f 138/178/1 139/174/1 148/202/1 147/184/1
f 144/177/1 143/176/1 151/180/1 152/186/1
f 139/174/1 142/173/1 150/183/1 148/202/1
f 140/172/1 70/171/1 146/185/1 149/179/1
f 141/190/1 154/189/1 157/203/1 156/197/1
f 154/189/1 155/201/1 158/200/1 157/203/1
f 156/197/1 157/203/1 160/193/1 159/204/1
f 157/203/1 158/200/1 161/194/1 160/193/1
f 150/205/108 153/206/108 161/194/108 158/200/108
f 151/207/109 149/208/109 156/197/109 159/204/109
f 147/209/110 148/210/110 155/201/110 154/189/110
f 152/211/111 151/212/111 159/204/111 160/193/111
