# Blender v2.93.1 OBJ File: ''
# www.blender.org
mtllib MetalCells.mtl
o Icosphere_Icosphere.001
v -0.705501 -0.127723 -0.663087
v -0.453403 -0.465832 -0.156467
v -0.477301 0.144410 -0.183001
v -0.277610 0.412614 -0.575666
v -0.130297 -0.031883 -0.791808
v -0.238944 -0.574787 -0.532727
v 0.130297 -0.134457 0.244066
v 0.238944 0.408446 -0.015014
v 0.453403 0.299491 -0.391274
v 0.477301 -0.310751 -0.364740
v 0.277610 -0.578955 0.027925
v 0.705501 -0.038618 0.115346
vt 0.181819 0.000000
vt 0.272728 0.157461
vt 0.090910 0.157461
vt 0.363637 0.000000
vt 0.454546 0.157461
vt 0.909091 0.000000
vt 1.000000 0.157461
vt 0.818182 0.157461
vt 0.727273 0.000000
vt 0.636364 0.157461
vt 0.545455 0.000000
vt 0.363637 0.314921
vt 0.181819 0.314921
vt 0.909091 0.314921
vt 0.727273 0.314921
vt 0.545455 0.314921
vt 0.000000 0.314921
vt 0.272728 0.472382
vt 0.090910 0.472382
vt 0.818182 0.472382
vt 0.636364 0.472382
vt 0.454546 0.472382
vn -0.8994 -0.0162 0.4367
vn -0.6586 -0.7347 -0.1626
vn -0.7856 0.6184 0.0229
vn -0.2598 0.3513 -0.8995
vn -0.1350 -0.4046 -0.9045
vn -0.1925 -0.9664 0.1701
vn -0.5709 0.0133 0.8209
vn -0.3966 0.8394 0.3716
vn 0.2838 0.4937 -0.8220
vn 0.3598 -0.4595 -0.8120
vn -0.2838 -0.4937 0.8220
vn -0.3598 0.4595 0.8120
vn 0.1925 0.9664 -0.1701
vn 0.5709 -0.0133 -0.8209
vn 0.3966 -0.8394 -0.3716
vn 0.2598 -0.3513 0.8995
vn 0.1350 0.4046 0.9045
vn 0.6586 0.7347 0.1626
vn 0.8994 0.0162 -0.4367
vn 0.7856 -0.6184 -0.0229
usemtl None
s off
f 1/1/1 2/2/1 3/3/1
f 2/2/2 1/4/2 6/5/2
f 1/6/3 3/7/3 4/8/3
f 1/9/4 4/8/4 5/10/4
f 1/11/5 5/10/5 6/5/5
f 2/2/6 6/5/6 11/12/6
f 3/3/7 2/2/7 7/13/7
f 4/8/8 3/7/8 8/14/8
f 5/10/9 4/8/9 9/15/9
f 6/5/10 5/10/10 10/16/10
f 2/2/11 11/12/11 7/13/11
f 3/3/12 7/13/12 8/17/12
f 4/8/13 8/14/13 9/15/13
f 5/10/14 9/15/14 10/16/14
f 6/5/15 10/16/15 11/12/15
f 7/13/16 11/12/16 12/18/16
f 8/17/17 7/13/17 12/19/17
f 9/15/18 8/14/18 12/20/18
f 10/16/19 9/15/19 12/21/19
f 11/12/20 10/16/20 12/22/20
o Icosphere.001_Icosphere.002
v -0.781772 -0.032591 0.162877
v -0.346985 -0.527405 0.137286
v -0.447806 -0.185348 0.633777
v -0.412938 0.329181 0.627399
v -0.290566 0.305107 0.126958
v -0.249806 -0.224290 -0.175943
v 0.290566 -0.471448 0.585995
v 0.249806 0.057949 0.888895
v 0.346985 0.361065 0.575666
v 0.447806 0.019007 0.079176
v 0.412938 -0.495521 0.085554
v 0.781772 -0.133749 0.550076
vt 0.181819 0.000000
vt 0.272728 0.157461
vt 0.090910 0.157461
vt 0.363637 0.000000
vt 0.454546 0.157461
vt 0.909091 0.000000
vt 1.000000 0.157461
vt 0.818182 0.157461
vt 0.727273 0.000000
vt 0.636364 0.157461
vt 0.545455 0.000000
vt 0.363637 0.314921
vt 0.181819 0.314921
vt 0.909091 0.314921
vt 0.727273 0.314921
vt 0.545455 0.314921
vt 0.000000 0.314921
vt 0.272728 0.472382
vt 0.090910 0.472382
vt 0.818182 0.472382
vt 0.636364 0.472382
vt 0.454546 0.472382
vn -0.7099 -0.6391 0.2961
vn -0.5876 -0.4827 -0.6494
vn -0.8046 0.0618 0.5907
vn -0.5663 0.8049 -0.1772
vn -0.3635 0.4414 -0.8204
vn -0.0175 -0.7158 -0.6981
vn -0.2834 -0.8156 0.5044
vn -0.3542 0.0356 0.9345
vn -0.0459 0.9972 -0.0592
vn 0.1383 0.4998 -0.8550
vn 0.0459 -0.9972 0.0592
vn -0.1383 -0.4998 0.8550
vn 0.0175 0.7158 0.6981
vn 0.2834 0.8156 -0.5044
vn 0.3542 -0.0356 -0.9345
vn 0.5663 -0.8049 0.1772
vn 0.3635 -0.4414 0.8204
vn 0.5876 0.4827 0.6494
vn 0.7099 0.6391 -0.2961
vn 0.8046 -0.0618 -0.5907
usemtl None
s off
f 13/23/21 14/24/21 15/25/21
f 14/24/22 13/26/22 18/27/22
f 13/28/23 15/29/23 16/30/23
f 13/31/24 16/30/24 17/32/24
f 13/33/25 17/32/25 18/27/25
f 14/24/26 18/27/26 23/34/26
f 15/25/27 14/24/27 19/35/27
f 16/30/28 15/29/28 20/36/28
f 17/32/29 16/30/29 21/37/29
f 18/27/30 17/32/30 22/38/30
f 14/24/31 23/34/31 19/35/31
f 15/25/32 19/35/32 20/39/32
f 16/30/33 20/36/33 21/37/33
f 17/32/34 21/37/34 22/38/34
f 18/27/35 22/38/35 23/34/35
f 19/35/36 23/34/36 24/40/36
f 20/39/37 19/35/37 24/41/37
f 21/37/38 20/36/38 24/42/38
f 22/38/39 21/37/39 24/43/39
f 23/34/40 22/38/40 24/44/40
