# Blender v2.93.1 OBJ File: ''
# www.blender.org
mtllib PetrolInnerMesh.mtl
v -0.320058 0.073200 0.637671
v 0.456876 0.073200 0.473978
v -0.430001 0.073200 -0.486194
v 0.415342 0.073200 -0.415342
v -0.500314 0.073200 -0.203334
v -0.552227 0.073200 0.052935
v -0.536555 0.073200 0.413447
v -0.259527 0.073200 0.673372
v 0.002443 0.073200 0.555077
v 0.230209 0.073200 0.514566
v 0.502350 0.073200 0.401231
v 0.542862 0.073200 0.014659
v 0.528411 0.073200 -0.144698
v 0.323049 0.073200 -0.426612
v 0.039091 0.073200 -0.498884
v -0.293731 0.073200 -0.624509
v -0.112943 0.073200 0.479419
v 0.000000 0.073200 0.458333
v 0.152034 0.073200 0.396351
v -0.216459 0.073200 0.185681
v 0.000000 0.073200 -0.000000
v 0.179812 0.073200 -0.034204
v -0.188682 0.073200 -0.244875
v -0.031761 0.073200 -0.270209
v 0.268721 0.076726 -0.192055
vt 0.250000 0.250000
vt 0.500000 0.250000
vt 0.500000 0.500000
vt 0.250000 0.500000
vt 0.750000 0.250000
vt 0.750000 0.500000
vt 0.500000 0.750000
vt 0.250000 0.750000
vt 0.750000 0.750000
vt 0.000000 0.000000
vt 0.250000 0.000000
vt 0.000000 0.250000
vt 0.500000 0.000000
vt 0.750000 0.000000
vt 1.000000 0.000000
vt 1.000000 0.250000
vt 1.000000 0.500000
vt 1.000000 0.750000
vt 1.000000 1.000000
vt 0.750000 1.000000
vt 0.500000 1.000000
vt 0.250000 1.000000
vt 0.000000 0.750000
vt 0.000000 1.000000
vt 0.000000 0.500000
vn 0.0000 1.0000 0.0000
vn -0.0080 0.9999 0.0072
vn 0.0038 0.9999 0.0120
vn 0.0114 0.9999 -0.0083
vn -0.0038 1.0000 -0.0086
usemtl None
s off
f 17/1/1 18/2/1 21/3/1 20/4/1
f 18/2/1 19/5/1 22/6/1 21/3/1
f 20/4/1 21/3/1 24/7/1 23/8/1
f 21/3/2 22/6/2 25/9/2 24/7/2
f 1/10/1 8/11/1 17/1/1 7/12/1
f 8/11/1 9/13/1 18/2/1 17/1/1
f 9/13/1 10/14/1 19/5/1 18/2/1
f 10/14/1 2/15/1 11/16/1 19/5/1
f 19/5/1 11/16/1 12/17/1 22/6/1
f 22/6/3 12/17/3 13/18/3 25/9/3
f 25/9/4 13/18/4 4/19/4 14/20/4
f 24/7/5 25/9/5 14/20/5 15/21/5
f 23/8/1 24/7/1 15/21/1 16/22/1
f 5/23/1 23/8/1 16/22/1 3/24/1
f 6/25/1 20/4/1 23/8/1 5/23/1
f 7/12/1 17/1/1 20/4/1 6/25/1
