# Blender v2.93.1 OBJ File: ''
# www.blender.org
mtllib SplashDamage.mtl
v 0.000000 -0.281397 -1.000000
v -0.000000 -0.043653 -1.453001
v 0.195090 -0.281397 -0.980785
v 0.283466 -0.043653 -1.425082
v 0.382683 -0.281397 -0.923880
v 0.556040 -0.043653 -1.342398
v 0.555570 -0.281397 -0.831470
v 0.807244 -0.043653 -1.208127
v 0.707107 -0.281397 -0.707107
v 1.027427 -0.043653 -1.027427
v 0.831470 -0.281397 -0.555570
v 1.208127 -0.043653 -0.807244
v 0.923880 -0.281397 -0.382683
v 1.342398 -0.043653 -0.556040
v 0.980785 -0.281397 -0.195090
v 1.425082 -0.043653 -0.283467
v 1.000000 -0.281397 0.000000
v 1.453001 -0.043653 0.000000
v 0.980785 -0.281397 0.195090
v 1.425082 -0.043653 0.283467
v 0.923880 -0.281397 0.382683
v 1.342398 -0.043653 0.556039
v 0.831470 -0.281397 0.555570
v 1.208127 -0.043653 0.807244
v 0.707107 -0.281397 0.707107
v 1.027427 -0.043653 1.027427
v 0.555570 -0.281397 0.831470
v 0.807244 -0.043653 1.208127
v 0.382683 -0.281397 0.923880
v 0.556040 -0.043653 1.342398
v 0.195090 -0.281397 0.980785
v 0.283466 -0.043653 1.425083
v -0.000000 -0.281397 1.000000
v -0.000000 -0.043653 1.453001
v -0.195090 -0.281397 0.980785
v -0.283466 -0.043653 1.425083
v -0.382683 -0.281397 0.923880
v -0.556040 -0.043653 1.342398
v -0.555570 -0.281397 0.831470
v -0.807244 -0.043653 1.208126
v -0.707107 -0.281397 0.707107
v -1.027427 -0.043653 1.027427
v -0.831469 -0.281397 0.555570
v -1.208126 -0.043653 0.807245
v -0.923880 -0.281397 0.382684
v -1.342398 -0.043653 0.556040
v -0.980785 -0.281397 0.195090
v -1.425082 -0.043653 0.283467
v -1.000000 -0.281397 -0.000000
v -1.453001 -0.043653 -0.000000
v -0.980785 -0.281397 -0.195090
v -1.425082 -0.043653 -0.283467
v -0.923879 -0.281397 -0.382684
v -1.342398 -0.043653 -0.556040
v -0.831470 -0.281397 -0.555570
v -1.208127 -0.043653 -0.807244
v -0.707107 -0.281397 -0.707107
v -1.027427 -0.043653 -1.027427
v -0.555570 -0.281397 -0.831470
v -0.807244 -0.043653 -1.208127
v -0.382683 -0.281397 -0.923880
v -0.556040 -0.043653 -1.342398
v -0.195090 -0.281397 -0.980785
v -0.283466 -0.043653 -1.425083
vt 1.000000 0.001953
vt 1.000000 1.000000
vt 0.968750 1.000000
vt 0.968750 0.001953
vt 0.937500 1.000000
vt 0.937500 0.001953
vt 0.906250 1.000000
vt 0.906250 0.001953
vt 0.875000 1.000000
vt 0.875000 0.001953
vt 0.843750 1.000000
vt 0.843750 0.001953
vt 0.812500 1.000000
vt 0.812500 0.001953
vt 0.781250 1.000000
vt 0.781250 0.001953
vt 0.750000 1.000000
vt 0.750000 0.001953
vt 0.718750 1.000000
vt 0.718750 0.001953
vt 0.687500 1.000000
vt 0.687500 0.001953
vt 0.656250 1.000000
vt 0.656250 0.001953
vt 0.625000 1.000000
vt 0.625000 0.001953
vt 0.593750 1.000000
vt 0.593750 0.001953
vt 0.562500 1.000000
vt 0.562500 0.001953
vt 0.531250 1.000000
vt 0.531250 0.001953
vt 0.500000 1.000000
vt 0.500000 0.001953
vt 0.468750 1.000000
vt 0.468750 0.001953
vt 0.437500 1.000000
vt 0.437500 0.001953
vt 0.406250 1.000000
vt 0.406250 0.001953
vt 0.375000 1.000000
vt 0.375000 0.001953
vt 0.343750 1.000000
vt 0.343750 0.001953
vt 0.312500 1.000000
vt 0.312500 0.001953
vt 0.281250 1.000000
vt 0.281250 0.001953
vt 0.250000 1.000000
vt 0.250000 0.001953
vt 0.218750 1.000000
vt 0.218750 0.001953
vt 0.187500 1.000000
vt 0.187500 0.001953
vt 0.156250 1.000000
vt 0.156250 0.001953
vt 0.125000 1.000000
vt 0.125000 0.001953
vt 0.093750 1.000000
vt 0.093750 0.001953
vt 0.062500 1.000000
vt 0.062500 0.001953
vt 0.031250 1.000000
vt 0.031250 0.001953
vt 0.000000 1.000000
vt 0.000000 0.001953
vn 0.0457 -0.8845 -0.4642
vn 0.1354 -0.8845 -0.4464
vn 0.2199 -0.8845 -0.4114
vn 0.2959 -0.8845 -0.3606
vn 0.3606 -0.8845 -0.2959
vn 0.4114 -0.8845 -0.2199
vn 0.4464 -0.8845 -0.1354
vn 0.4642 -0.8845 -0.0457
vn 0.4642 -0.8845 0.0457
vn 0.4464 -0.8845 0.1354
vn 0.4114 -0.8845 0.2199
vn 0.3606 -0.8845 0.2959
vn 0.2959 -0.8845 0.3606
vn 0.2199 -0.8845 0.4114
vn 0.1354 -0.8845 0.4464
vn 0.0457 -0.8845 0.4642
vn -0.0457 -0.8845 0.4642
vn -0.1354 -0.8845 0.4464
vn -0.2199 -0.8845 0.4114
vn -0.2959 -0.8845 0.3606
vn -0.3606 -0.8845 0.2959
vn -0.4114 -0.8845 0.2199
vn -0.4464 -0.8845 0.1354
vn -0.4642 -0.8845 0.0457
vn -0.4642 -0.8845 -0.0457
vn -0.4464 -0.8845 -0.1354
vn -0.4114 -0.8845 -0.2199
vn -0.3606 -0.8845 -0.2959
vn -0.2959 -0.8845 -0.3606
vn -0.2199 -0.8845 -0.4114
vn -0.1354 -0.8845 -0.4464
vn -0.0457 -0.8845 -0.4642
usemtl None
s off
f 1/1/1 2/2/1 4/3/1 3/4/1
f 3/4/2 4/3/2 6/5/2 5/6/2
f 5/6/3 6/5/3 8/7/3 7/8/3
f 7/8/4 8/7/4 10/9/4 9/10/4
f 9/10/5 10/9/5 12/11/5 11/12/5
f 11/12/6 12/11/6 14/13/6 13/14/6
f 13/14/7 14/13/7 16/15/7 15/16/7
f 15/16/8 16/15/8 18/17/8 17/18/8
f 17/18/9 18/17/9 20/19/9 19/20/9
f 19/20/10 20/19/10 22/21/10 21/22/10
f 21/22/11 22/21/11 24/23/11 23/24/11
f 23/24/12 24/23/12 26/25/12 25/26/12
f 25/26/13 26/25/13 28/27/13 27/28/13
f 27/28/14 28/27/14 30/29/14 29/30/14
f 29/30/15 30/29/15 32/31/15 31/32/15
f 31/32/16 32/31/16 34/33/16 33/34/16
f 33/34/17 34/33/17 36/35/17 35/36/17
f 35/36/18 36/35/18 38/37/18 37/38/18
f 37/38/19 38/37/19 40/39/19 39/40/19
f 39/40/20 40/39/20 42/41/20 41/42/20
f 41/42/21 42/41/21 44/43/21 43/44/21
f 43/44/22 44/43/22 46/45/22 45/46/22
f 45/46/23 46/45/23 48/47/23 47/48/23
f 47/48/24 48/47/24 50/49/24 49/50/24
f 49/50/25 50/49/25 52/51/25 51/52/25
f 51/52/26 52/51/26 54/53/26 53/54/26
f 53/54/27 54/53/27 56/55/27 55/56/27
f 55/56/28 56/55/28 58/57/28 57/58/28
f 57/58/29 58/57/29 60/59/29 59/60/29
f 59/60/30 60/59/30 62/61/30 61/62/30
f 61/62/31 62/61/31 64/63/31 63/64/31
f 63/64/32 64/63/32 2/65/32 1/66/32
