# Blender v2.91.2 OBJ File: ''
# www.blender.org
mtllib VFXHalfSplashUV4.mtl
v 0.000000 -0.445709 -2.483651
v -0.114731 -0.314880 -2.975079
v 0.000001 -0.445709 2.483651
v -0.114728 -0.314881 2.975079
v -0.642815 -0.445709 2.399023
v -1.382764 0.022033 2.873706
v -1.241825 -0.445709 2.150905
v -2.564385 0.335986 2.576494
v -1.756206 -0.445709 1.756207
v -3.579067 0.605585 2.103699
v -2.150904 -0.445709 1.241826
v -4.357660 0.812455 1.487540
v -2.399023 -0.445709 0.642817
v -4.847104 0.942499 0.770008
v -2.483651 -0.445709 0.000001
v -5.014045 0.986854 0.000001
v -2.399023 -0.445709 -0.642815
v -4.847106 0.942499 -0.770006
v -2.150906 -0.445709 -1.241825
v -4.357662 0.812455 -1.487538
v -1.756208 -0.445709 -1.756206
v -3.579071 0.605586 -2.103698
v -1.241827 -0.445709 -2.150904
v -2.564391 0.335988 -2.576493
v -0.642818 -0.445709 -2.399023
v -1.382770 0.022034 -2.873705
vt 1.000000 -0.000000
vt 1.000000 1.000000
vt 0.831731 1.000000
vt 0.831731 0.000000
vt 0.665385 1.000000
vt 0.665385 0.000000
vt 0.499039 1.000000
vt 0.499039 0.000000
vt 0.332693 1.000000
vt 0.332693 0.000000
vt 0.166346 1.000000
vt 0.166346 0.000000
vt 0.001922 1.000000
vt 0.001922 -0.000000
vt 1.000000 -0.000000
vt 1.000000 1.000000
vt 0.831732 1.000000
vt 0.831732 0.000000
vt 0.665385 1.000000
vt 0.665385 0.000000
vt 0.499039 1.000000
vt 0.499039 0.000000
vt 0.332693 1.000000
vt 0.332693 0.000000
vt 0.166346 1.000000
vt 0.166346 0.000000
vt 0.001922 1.000000
vt 0.001922 -0.000000
vn -0.1965 -0.9018 0.3849
vn -0.2926 -0.8278 0.4787
vn -0.3804 -0.8272 0.4135
vn -0.4402 -0.8456 0.3021
vn -0.4751 -0.8611 0.1811
vn -0.4909 -0.8691 0.0601
vn -0.4909 -0.8691 -0.0601
vn -0.4751 -0.8611 -0.1811
vn -0.4402 -0.8456 -0.3021
vn -0.3804 -0.8272 -0.4135
vn -0.2926 -0.8278 -0.4787
vn -0.1965 -0.9018 -0.3849
usemtl None
s off
f 3/1/1 4/2/1 6/3/1 5/4/1
f 5/4/2 6/3/2 8/5/2 7/6/2
f 7/6/3 8/5/3 10/7/3 9/8/3
f 9/8/4 10/7/4 12/9/4 11/10/4
f 11/10/5 12/9/5 14/11/5 13/12/5
f 13/12/6 14/11/6 16/13/6 15/14/6
f 15/15/7 16/16/7 18/17/7 17/18/7
f 17/18/8 18/17/8 20/19/8 19/20/8
f 19/20/9 20/19/9 22/21/9 21/22/9
f 21/22/10 22/21/10 24/23/10 23/24/10
f 23/24/11 24/23/11 26/25/11 25/26/11
f 25/26/12 26/25/12 2/27/12 1/28/12
